<svg width="46" height="30" viewBox="0 0 46 30" fill="none" xmlns="http://www.w3.org/2000/svg">
<rect x="1.25" y="0.5" width="44" height="29" rx="3.5" fill="#1F72CD" stroke="#D9D9D9"/>
<path fill-rule="evenodd" clip-rule="evenodd" d="M8.84334 10L4.75 19.0584H9.6503L10.2578 17.6141H11.6464L12.2539 19.0584H17.6477V17.9561L18.1284 19.0584H20.9185L21.3991 17.9328V19.0584H32.6169L33.9809 17.6516L35.2581 19.0584L41.0198 19.0701L36.9135 14.5545L41.0198 10H35.3474L34.0197 11.3808L32.7826 10H20.5792L19.5313 12.3381L18.4588 10H13.5687V11.0648L13.0248 10H8.84334ZM9.79149 11.2863H12.1801L14.8952 17.4289V11.2863H17.5119L19.609 15.6905L21.5418 11.2863H24.1454V17.7863H22.5611L22.5482 12.693L20.2385 17.7863H18.8214L16.4988 12.693V17.7863H13.2397L12.6218 16.3291H9.28373L8.66714 17.7851H6.92094L9.79149 11.2863ZM32.0365 11.2863H25.5947V17.7825H31.9368L33.9809 15.6296L35.9511 17.7825H38.0107L35.0171 14.5532L38.0107 11.2863H36.0405L34.0067 13.4145L32.0365 11.2863ZM10.9535 12.3861L9.85373 14.982H12.052L10.9535 12.3861ZM27.1855 13.8187V12.6321V12.631H31.205L32.9588 14.5286L31.1273 16.4366H27.1855V15.1412H30.6998V13.8187H27.1855Z" fill="white"/>
</svg>
