<svg width="45" height="30" viewBox="0 0 45 30" fill="none" xmlns="http://www.w3.org/2000/svg">
<rect x="0.5" y="0.5" width="44" height="29" rx="3.5" fill="white" stroke="#D9D9D9"/>
<path fill-rule="evenodd" clip-rule="evenodd" d="M27.5723 23.2575C32.2777 23.2575 36.0921 19.3942 36.0921 14.6287C36.0921 9.86321 32.2777 6 27.5723 6C25.4636 6 23.5337 6.77594 22.046 8.0613C20.5583 6.77596 18.6285 6.00004 16.5197 6.00004C11.8144 6.00004 8 9.86325 8 14.6288C8 19.3943 11.8144 23.2575 16.5197 23.2575C18.6285 23.2575 20.5583 22.4816 22.0461 21.1962C23.5338 22.4815 25.4636 23.2575 27.5723 23.2575Z" fill="#ED0006"/>
<path fill-rule="evenodd" clip-rule="evenodd" d="M22.0461 21.1962C23.878 19.6135 25.0396 17.2585 25.0396 14.6287C25.0396 11.999 23.878 9.64396 22.0461 8.06129C23.5339 6.77594 25.4637 6 27.5725 6C32.2778 6 36.0922 9.86321 36.0922 14.6287C36.0922 19.3942 32.2778 23.2575 27.5725 23.2575C25.4637 23.2575 23.5339 22.4815 22.0461 21.1962Z" fill="#F9A000"/>
<path fill-rule="evenodd" clip-rule="evenodd" d="M22.0461 21.1961C23.878 19.6134 25.0395 17.2584 25.0395 14.6287C25.0395 11.9989 23.878 9.64395 22.0461 8.06128C20.2143 9.64395 19.0527 11.9989 19.0527 14.6287C19.0527 17.2584 20.2143 19.6134 22.0461 21.1961Z" fill="#FF5E00"/>
</svg>
