<svg width="46" height="30" viewBox="0 0 46 30" fill="none" xmlns="http://www.w3.org/2000/svg">
<rect x="0.75" y="0.5" width="44" height="29" rx="3.5" fill="white" stroke="#D9D9D9"/>
<path fill-rule="evenodd" clip-rule="evenodd" d="M14.9066 19.6978H12.2562L10.2687 12.1154C10.1744 11.7666 9.97406 11.4583 9.67943 11.313C8.94414 10.9478 8.1339 10.6571 7.25 10.5105V10.2186H11.5196C12.1089 10.2186 12.5508 10.6571 12.6245 11.1664L13.6557 16.6358L16.3048 10.2186H18.8815L14.9066 19.6978ZM20.3547 19.6978H17.8516L19.9127 10.2186H22.4158L20.3547 19.6978ZM25.6542 12.8446C25.7278 12.3341 26.1698 12.0422 26.6854 12.0422C27.4956 11.9689 28.3782 12.1155 29.1148 12.4794L29.5568 10.4385C28.8202 10.1466 28.01 10 27.2747 10C24.8452 10 23.0774 11.313 23.0774 13.1353C23.0774 14.5216 24.3296 15.2495 25.2135 15.688C26.1698 16.1253 26.5381 16.4172 26.4644 16.8544C26.4644 17.5103 25.7278 17.8022 24.9925 17.8022C24.1086 17.8022 23.2247 17.5836 22.4158 17.2184L21.9739 19.2606C22.8578 19.6245 23.814 19.7711 24.6979 19.7711C27.422 19.8431 29.1148 18.5314 29.1148 16.5625C29.1148 14.0831 25.6542 13.9378 25.6542 12.8446ZM37.875 19.6978L35.8875 10.2186H33.7527C33.3108 10.2186 32.8688 10.5105 32.7215 10.9478L29.0412 19.6978H31.6179L32.1322 18.3127H35.2982L35.5929 19.6978H37.875ZM34.121 12.7714L34.8563 16.3439H32.7952L34.121 12.7714Z" fill="#172B85"/>
</svg>
